<svg version="1" xmlns="http://www.w3.org/2000/svg" width="128.409" height="142.045" viewBox="0 0 128.409 142.045"><switch><g><path fill="#F68C1F" d="M97.967 5.785c-7.137 0-11.097 2.471-13.989 4.276-2.283 1.425-3.662 2.285-7.041 2.285-3.377 0-4.757-.86-7.041-2.285-2.892-1.805-6.851-4.276-13.988-4.276-7.136 0-11.095 2.471-13.986 4.276-2.285 1.425-3.663 2.285-7.041 2.285-3.376 0-4.754-.86-7.038-2.285-2.891-1.805-6.851-4.276-13.987-4.276v13.122c3.378 0 4.756.86 7.039 2.285 2.892 1.805 6.851 4.276 13.986 4.276 7.137 0 11.096-2.471 13.987-4.276 2.284-1.425 3.663-2.285 7.04-2.285 3.378 0 4.757.86 7.041 2.285 2.892 1.805 6.851 4.276 13.988 4.276s11.096-2.471 13.988-4.275c2.284-1.426 3.663-2.286 7.042-2.286 3.377 0 4.755.86 7.038 2.285 1.607 1.003 3.568 2.199 6.197 3.075V9.597c-2.828-1.738-6.687-3.812-13.235-3.812"/><path fill="#FFF" d="M83.585 36.708c-8.432 0-15.986 3.801-21.057 9.774-5.069-5.973-12.624-9.774-21.054-9.774-15.229 0-27.618 12.389-27.618 27.617v43.616h13.122V64.326c0-7.992 6.502-14.495 14.496-14.495 7.981 0 14.475 6.484 14.493 14.461l-.001.034v43.616h13.125V64.326v-.033c.018-7.977 6.512-14.462 14.494-14.462 7.992 0 14.494 6.503 14.494 14.495v43.616h13.122V64.326c0-15.228-12.388-27.618-27.616-27.618"/><path fill="#049FC7" d="M111.141 121.07H13.86l4.912 13.122h97.282z"/></g></switch></svg>